<svg width="32" height="39" viewBox="0 0 32 39" fill="none" xmlns="http://www.w3.org/2000/svg">
<path d="M28.933 0.677994H4.05777C1.91539 0.677994 0.171021 2.43406 0.171021 4.59081V34.3282C0.171021 36.4849 1.91539 38.241 4.05777 38.241H31.265V3.02568C31.265 1.73132 30.2187 0.677994 28.933 0.677994ZM29.7103 3.02568V30.4154H7.94452V2.24312H15.718V19.7835L20.3821 15.0881L25.0462 19.7835V2.24312H28.933C29.3621 2.24312 29.7103 2.59371 29.7103 3.02568ZM17.2727 2.24312H23.4915V16.0053L20.3821 12.875L17.2727 16.0053V2.24312ZM4.05777 2.24312H6.38982V30.4154H4.05777C3.18403 30.4154 2.37559 30.708 1.72572 31.1995V4.59081C1.72572 3.29645 2.77203 2.24312 4.05777 2.24312ZM4.05777 36.6759C2.77203 36.6759 1.72572 35.6225 1.72572 34.3282C1.72572 33.0338 2.77203 31.9805 4.05777 31.9805H29.7103V36.6759H4.05777Z" fill="#0F0F0F"/>
<path d="M23.4915 2.24312H17.2727V16.0053L20.3821 12.875L23.4915 16.0053V2.24312Z" fill="#DE2E2E"/>
</svg>
