<svg width="1920" height="791" viewBox="0 0 1920 791" fill="none" xmlns="http://www.w3.org/2000/svg">
<path fill-rule="evenodd" clip-rule="evenodd" d="M1885.85 140.763L1801.73 363.437C1746.9 315.601 1642.83 300.755 1591.67 325.567C1514.78 295.81 1441.91 321.315 1424.94 342.529L1529.84 115.068C1529.84 115.068 1627.03 62.3163 1682.81 114.245C1749.97 64.1325 1853.69 96.3244 1885.85 140.763Z" fill="black" stroke="black" stroke-width="5"/>
<path fill-rule="evenodd" clip-rule="evenodd" d="M25.4199 597.621L198.804 760.71C227.048 693.652 314.019 634.602 370.871 634.422C426.876 573.916 503.545 564.819 528.11 576.421L333.963 418.158C333.963 418.158 223.473 413.462 196.175 484.612C113.831 469.094 34.7943 543.572 25.4199 597.621Z" fill="black" stroke="black" stroke-width="5"/>
<path fill-rule="evenodd" clip-rule="evenodd" d="M35.447 568.501L186.524 710.801C213.211 618.153 296.045 560.082 354.09 602.863C401.906 488.018 507.753 567.307 516.056 565.385L320.006 398.898C320.006 398.898 209.877 376.812 182.584 447.982C133.469 424.753 43.2838 488.858 35.447 568.501Z" fill="white" stroke="black" stroke-width="5"/>
<path fill-rule="evenodd" clip-rule="evenodd" d="M1864.05 119.006L1790.83 313.207C1726.16 241.697 1626.24 225.913 1592.89 289.843C1499.48 207.673 1439.22 325.399 1430.92 327.32L1533.91 91.6354C1533.91 91.6354 1623.15 23.4185 1678.93 75.367C1712.85 32.9246 1822.03 50.8994 1864.05 119.006Z" fill="white" stroke="black" stroke-width="5"/>
</svg>
